<mxfile host="Electron" agent="Mozilla/5.0 (Windows NT 10.0; Win64; x64) AppleWebKit/537.36 (KHTML, like Gecko) draw.io/24.7.17 Chrome/128.0.6613.36 Electron/32.0.1 Safari/537.36" version="24.7.17">
  <diagram name="Page-1" id="zYHR-o1ACghAhOg8VMQh">
    <mxGraphModel dx="1434" dy="836" grid="1" gridSize="10" guides="1" tooltips="1" connect="1" arrows="1" fold="1" page="1" pageScale="1" pageWidth="2339" pageHeight="3300" math="0" shadow="0">
      <root>
        <mxCell id="0" />
        <mxCell id="1" parent="0" />
        <mxCell id="r9QmBJwEoFi95uxMMXEV-9" value="" style="group" parent="1" vertex="1" connectable="0">
          <mxGeometry x="850" y="140" width="280" height="200" as="geometry" />
        </mxCell>
        <mxCell id="r9QmBJwEoFi95uxMMXEV-1" value="Process 1" style="rounded=1;whiteSpace=wrap;html=1;verticalAlign=top;" parent="r9QmBJwEoFi95uxMMXEV-9" vertex="1">
          <mxGeometry width="280" height="200" as="geometry" />
        </mxCell>
        <mxCell id="r9QmBJwEoFi95uxMMXEV-4" value="PC program counter" style="rounded=1;whiteSpace=wrap;html=1;" parent="r9QmBJwEoFi95uxMMXEV-9" vertex="1">
          <mxGeometry x="20" y="110" width="240" height="20" as="geometry" />
        </mxCell>
        <mxCell id="r9QmBJwEoFi95uxMMXEV-5" value="SP Stack Pointer" style="rounded=1;whiteSpace=wrap;html=1;" parent="r9QmBJwEoFi95uxMMXEV-9" vertex="1">
          <mxGeometry x="20" y="170" width="240" height="20" as="geometry" />
        </mxCell>
        <mxCell id="r9QmBJwEoFi95uxMMXEV-6" value="LR Link Register" style="rounded=1;whiteSpace=wrap;html=1;" parent="r9QmBJwEoFi95uxMMXEV-9" vertex="1">
          <mxGeometry x="20" y="140" width="240" height="20" as="geometry" />
        </mxCell>
        <mxCell id="r9QmBJwEoFi95uxMMXEV-8" value="" style="group" parent="r9QmBJwEoFi95uxMMXEV-9" vertex="1" connectable="0">
          <mxGeometry x="20" y="30" width="240" height="60" as="geometry" />
        </mxCell>
        <mxCell id="r9QmBJwEoFi95uxMMXEV-7" value="Process Memory" style="rounded=0;whiteSpace=wrap;html=1;align=center;verticalAlign=top;" parent="r9QmBJwEoFi95uxMMXEV-8" vertex="1">
          <mxGeometry width="240" height="60" as="geometry" />
        </mxCell>
        <mxCell id="r9QmBJwEoFi95uxMMXEV-3" value="&lt;div&gt;0xa0000 - 0xaff00 Program Memory&lt;/div&gt;0xffac0 - 0xffffd Peripherals" style="text;html=1;align=left;verticalAlign=middle;whiteSpace=wrap;rounded=0;fontFamily=Courier New;" parent="r9QmBJwEoFi95uxMMXEV-8" vertex="1">
          <mxGeometry y="25" width="240" height="30" as="geometry" />
        </mxCell>
        <mxCell id="r9QmBJwEoFi95uxMMXEV-10" value="" style="group" parent="1" vertex="1" connectable="0">
          <mxGeometry x="850" y="360" width="280" height="200" as="geometry" />
        </mxCell>
        <mxCell id="r9QmBJwEoFi95uxMMXEV-11" value="Process 2" style="rounded=1;whiteSpace=wrap;html=1;verticalAlign=top;" parent="r9QmBJwEoFi95uxMMXEV-10" vertex="1">
          <mxGeometry width="280" height="200" as="geometry" />
        </mxCell>
        <mxCell id="r9QmBJwEoFi95uxMMXEV-12" value="PC program counter" style="rounded=1;whiteSpace=wrap;html=1;" parent="r9QmBJwEoFi95uxMMXEV-10" vertex="1">
          <mxGeometry x="20" y="110" width="240" height="20" as="geometry" />
        </mxCell>
        <mxCell id="r9QmBJwEoFi95uxMMXEV-13" value="SP Stack Pointer" style="rounded=1;whiteSpace=wrap;html=1;" parent="r9QmBJwEoFi95uxMMXEV-10" vertex="1">
          <mxGeometry x="20" y="170" width="240" height="20" as="geometry" />
        </mxCell>
        <mxCell id="r9QmBJwEoFi95uxMMXEV-14" value="LR Link Register" style="rounded=1;whiteSpace=wrap;html=1;" parent="r9QmBJwEoFi95uxMMXEV-10" vertex="1">
          <mxGeometry x="20" y="140" width="240" height="20" as="geometry" />
        </mxCell>
        <mxCell id="r9QmBJwEoFi95uxMMXEV-15" value="" style="group" parent="r9QmBJwEoFi95uxMMXEV-10" vertex="1" connectable="0">
          <mxGeometry x="20" y="30" width="240" height="60" as="geometry" />
        </mxCell>
        <mxCell id="r9QmBJwEoFi95uxMMXEV-16" value="Process Memory" style="rounded=0;whiteSpace=wrap;html=1;align=center;verticalAlign=top;" parent="r9QmBJwEoFi95uxMMXEV-15" vertex="1">
          <mxGeometry width="240" height="60" as="geometry" />
        </mxCell>
        <mxCell id="r9QmBJwEoFi95uxMMXEV-17" value="&lt;div&gt;0xd0000 - 0xdff00 Program Memory&lt;/div&gt;0xffac0 - 0xffffd Peripherals" style="text;html=1;align=left;verticalAlign=middle;whiteSpace=wrap;rounded=0;fontFamily=Courier New;" parent="r9QmBJwEoFi95uxMMXEV-15" vertex="1">
          <mxGeometry y="25" width="240" height="30" as="geometry" />
        </mxCell>
        <mxCell id="r9QmBJwEoFi95uxMMXEV-19" value="" style="group" parent="1" vertex="1" connectable="0">
          <mxGeometry x="850" y="670" width="280" height="200" as="geometry" />
        </mxCell>
        <mxCell id="r9QmBJwEoFi95uxMMXEV-20" value="Process n" style="rounded=1;whiteSpace=wrap;html=1;verticalAlign=top;" parent="r9QmBJwEoFi95uxMMXEV-19" vertex="1">
          <mxGeometry width="280" height="200" as="geometry" />
        </mxCell>
        <mxCell id="r9QmBJwEoFi95uxMMXEV-21" value="PC program counter" style="rounded=1;whiteSpace=wrap;html=1;" parent="r9QmBJwEoFi95uxMMXEV-19" vertex="1">
          <mxGeometry x="20" y="110" width="240" height="20" as="geometry" />
        </mxCell>
        <mxCell id="r9QmBJwEoFi95uxMMXEV-22" value="SP Stack Pointer" style="rounded=1;whiteSpace=wrap;html=1;" parent="r9QmBJwEoFi95uxMMXEV-19" vertex="1">
          <mxGeometry x="20" y="170" width="240" height="20" as="geometry" />
        </mxCell>
        <mxCell id="r9QmBJwEoFi95uxMMXEV-23" value="LR Link Register" style="rounded=1;whiteSpace=wrap;html=1;" parent="r9QmBJwEoFi95uxMMXEV-19" vertex="1">
          <mxGeometry x="20" y="140" width="240" height="20" as="geometry" />
        </mxCell>
        <mxCell id="r9QmBJwEoFi95uxMMXEV-24" value="" style="group" parent="r9QmBJwEoFi95uxMMXEV-19" vertex="1" connectable="0">
          <mxGeometry x="20" y="30" width="240" height="60" as="geometry" />
        </mxCell>
        <mxCell id="r9QmBJwEoFi95uxMMXEV-25" value="Process Memory" style="rounded=0;whiteSpace=wrap;html=1;align=center;verticalAlign=top;" parent="r9QmBJwEoFi95uxMMXEV-24" vertex="1">
          <mxGeometry width="240" height="60" as="geometry" />
        </mxCell>
        <mxCell id="r9QmBJwEoFi95uxMMXEV-26" value="&lt;div&gt;0xe0000 - 0xeff00 Program Memory&lt;/div&gt;0xffac0 - 0xffffd Peripherals" style="text;html=1;align=left;verticalAlign=middle;whiteSpace=wrap;rounded=0;fontFamily=Courier New;" parent="r9QmBJwEoFi95uxMMXEV-24" vertex="1">
          <mxGeometry y="25" width="240" height="30" as="geometry" />
        </mxCell>
        <mxCell id="r9QmBJwEoFi95uxMMXEV-27" value="" style="endArrow=none;dashed=1;html=1;rounded=0;" parent="1" edge="1">
          <mxGeometry width="50" height="50" relative="1" as="geometry">
            <mxPoint x="990" y="660" as="sourcePoint" />
            <mxPoint x="990" y="560" as="targetPoint" />
          </mxGeometry>
        </mxCell>
        <mxCell id="r9QmBJwEoFi95uxMMXEV-29" value="kernel scheduler process" style="rounded=1;whiteSpace=wrap;html=1;verticalAlign=top;" parent="1" vertex="1">
          <mxGeometry x="520" y="150" width="220" height="330" as="geometry" />
        </mxCell>
        <mxCell id="r9QmBJwEoFi95uxMMXEV-30" value="process list" style="rounded=0;whiteSpace=wrap;html=1;verticalAlign=top;" parent="1" vertex="1">
          <mxGeometry x="600" y="180" width="120" height="150" as="geometry" />
        </mxCell>
        <mxCell id="r9QmBJwEoFi95uxMMXEV-31" value="process 1" style="rounded=1;whiteSpace=wrap;html=1;" parent="1" vertex="1">
          <mxGeometry x="620" y="210" width="80" height="20" as="geometry" />
        </mxCell>
        <mxCell id="r9QmBJwEoFi95uxMMXEV-51" style="edgeStyle=orthogonalEdgeStyle;rounded=0;orthogonalLoop=1;jettySize=auto;html=1;exitX=1;exitY=0.5;exitDx=0;exitDy=0;entryX=0;entryY=0.5;entryDx=0;entryDy=0;" parent="1" source="r9QmBJwEoFi95uxMMXEV-32" target="r9QmBJwEoFi95uxMMXEV-11" edge="1">
          <mxGeometry relative="1" as="geometry">
            <Array as="points">
              <mxPoint x="800" y="250" />
              <mxPoint x="800" y="460" />
            </Array>
          </mxGeometry>
        </mxCell>
        <mxCell id="r9QmBJwEoFi95uxMMXEV-32" value="process&amp;nbsp; 2" style="rounded=1;whiteSpace=wrap;html=1;" parent="1" vertex="1">
          <mxGeometry x="620" y="240" width="80" height="20" as="geometry" />
        </mxCell>
        <mxCell id="r9QmBJwEoFi95uxMMXEV-52" style="edgeStyle=orthogonalEdgeStyle;rounded=0;orthogonalLoop=1;jettySize=auto;html=1;exitX=1;exitY=0.5;exitDx=0;exitDy=0;entryX=0;entryY=0.5;entryDx=0;entryDy=0;" parent="1" source="r9QmBJwEoFi95uxMMXEV-33" target="r9QmBJwEoFi95uxMMXEV-20" edge="1">
          <mxGeometry relative="1" as="geometry">
            <Array as="points">
              <mxPoint x="760" y="310" />
              <mxPoint x="760" y="770" />
            </Array>
          </mxGeometry>
        </mxCell>
        <mxCell id="r9QmBJwEoFi95uxMMXEV-33" value="process&amp;nbsp; n" style="rounded=1;whiteSpace=wrap;html=1;" parent="1" vertex="1">
          <mxGeometry x="620" y="300" width="80" height="20" as="geometry" />
        </mxCell>
        <mxCell id="r9QmBJwEoFi95uxMMXEV-34" value="" style="endArrow=none;dashed=1;html=1;rounded=0;entryX=0.5;entryY=1;entryDx=0;entryDy=0;exitX=0.5;exitY=0;exitDx=0;exitDy=0;" parent="1" source="r9QmBJwEoFi95uxMMXEV-33" target="r9QmBJwEoFi95uxMMXEV-32" edge="1">
          <mxGeometry width="50" height="50" relative="1" as="geometry">
            <mxPoint x="980" y="340" as="sourcePoint" />
            <mxPoint x="1030" y="290" as="targetPoint" />
            <Array as="points" />
          </mxGeometry>
        </mxCell>
        <mxCell id="r9QmBJwEoFi95uxMMXEV-39" value="" style="group" parent="1" vertex="1" connectable="0">
          <mxGeometry x="210" y="530" width="280" height="120" as="geometry" />
        </mxCell>
        <mxCell id="r9QmBJwEoFi95uxMMXEV-35" value="CPU" style="rounded=1;whiteSpace=wrap;html=1;verticalAlign=top;" parent="r9QmBJwEoFi95uxMMXEV-39" vertex="1">
          <mxGeometry width="280" height="120" as="geometry" />
        </mxCell>
        <mxCell id="r9QmBJwEoFi95uxMMXEV-36" value="PC program counter" style="rounded=1;whiteSpace=wrap;html=1;" parent="r9QmBJwEoFi95uxMMXEV-39" vertex="1">
          <mxGeometry x="20" y="30" width="240" height="20" as="geometry" />
        </mxCell>
        <mxCell id="r9QmBJwEoFi95uxMMXEV-37" value="SP Stack Pointer" style="rounded=1;whiteSpace=wrap;html=1;" parent="r9QmBJwEoFi95uxMMXEV-39" vertex="1">
          <mxGeometry x="20" y="90" width="240" height="20" as="geometry" />
        </mxCell>
        <mxCell id="r9QmBJwEoFi95uxMMXEV-38" value="LR Link Register" style="rounded=1;whiteSpace=wrap;html=1;" parent="r9QmBJwEoFi95uxMMXEV-39" vertex="1">
          <mxGeometry x="20" y="60" width="240" height="20" as="geometry" />
        </mxCell>
        <mxCell id="r9QmBJwEoFi95uxMMXEV-43" value="" style="group" parent="1" vertex="1" connectable="0">
          <mxGeometry x="40" y="540" width="90" height="100" as="geometry" />
        </mxCell>
        <mxCell id="r9QmBJwEoFi95uxMMXEV-42" value="" style="rounded=1;whiteSpace=wrap;html=1;" parent="r9QmBJwEoFi95uxMMXEV-43" vertex="1">
          <mxGeometry width="90" height="100" as="geometry" />
        </mxCell>
        <mxCell id="r9QmBJwEoFi95uxMMXEV-40" value="system clock" style="sketch=0;pointerEvents=1;shadow=0;dashed=0;html=1;strokeColor=none;fillColor=#505050;labelPosition=center;verticalLabelPosition=bottom;verticalAlign=top;outlineConnect=0;align=center;shape=mxgraph.office.concepts.clock;" parent="r9QmBJwEoFi95uxMMXEV-43" vertex="1">
          <mxGeometry x="20" y="20" width="45" height="45" as="geometry" />
        </mxCell>
        <mxCell id="r9QmBJwEoFi95uxMMXEV-45" style="edgeStyle=orthogonalEdgeStyle;rounded=0;orthogonalLoop=1;jettySize=auto;html=1;exitX=1;exitY=0.5;exitDx=0;exitDy=0;" parent="1" source="r9QmBJwEoFi95uxMMXEV-42" target="r9QmBJwEoFi95uxMMXEV-35" edge="1">
          <mxGeometry relative="1" as="geometry" />
        </mxCell>
        <mxCell id="r9QmBJwEoFi95uxMMXEV-46" value="Timer IRQ" style="text;html=1;align=center;verticalAlign=middle;whiteSpace=wrap;rounded=0;" parent="1" vertex="1">
          <mxGeometry x="140" y="590" width="60" height="30" as="geometry" />
        </mxCell>
        <mxCell id="r9QmBJwEoFi95uxMMXEV-47" value="PC program counter" style="rounded=1;whiteSpace=wrap;html=1;" parent="1" vertex="1">
          <mxGeometry x="530" y="360" width="190" height="20" as="geometry" />
        </mxCell>
        <mxCell id="r9QmBJwEoFi95uxMMXEV-48" value="SP Stack Pointer" style="rounded=1;whiteSpace=wrap;html=1;" parent="1" vertex="1">
          <mxGeometry x="530" y="420" width="190" height="20" as="geometry" />
        </mxCell>
        <mxCell id="r9QmBJwEoFi95uxMMXEV-49" value="LR Link Register" style="rounded=1;whiteSpace=wrap;html=1;" parent="1" vertex="1">
          <mxGeometry x="530" y="390" width="190" height="20" as="geometry" />
        </mxCell>
        <mxCell id="r9QmBJwEoFi95uxMMXEV-50" style="edgeStyle=orthogonalEdgeStyle;rounded=0;orthogonalLoop=1;jettySize=auto;html=1;exitX=1;exitY=0.25;exitDx=0;exitDy=0;entryX=-0.007;entryY=0.375;entryDx=0;entryDy=0;entryPerimeter=0;" parent="1" source="r9QmBJwEoFi95uxMMXEV-31" target="r9QmBJwEoFi95uxMMXEV-1" edge="1">
          <mxGeometry relative="1" as="geometry" />
        </mxCell>
        <mxCell id="r9QmBJwEoFi95uxMMXEV-53" style="edgeStyle=orthogonalEdgeStyle;rounded=0;orthogonalLoop=1;jettySize=auto;html=1;entryX=0.455;entryY=1.009;entryDx=0;entryDy=0;entryPerimeter=0;" parent="1" source="r9QmBJwEoFi95uxMMXEV-35" target="r9QmBJwEoFi95uxMMXEV-29" edge="1">
          <mxGeometry relative="1" as="geometry" />
        </mxCell>
        <mxCell id="r9QmBJwEoFi95uxMMXEV-54" value="Each Timer IRQ Interrupts whichever process is running and jumps to the kernel scheduller to determine which process should run next" style="text;html=1;align=left;verticalAlign=top;whiteSpace=wrap;rounded=0;" parent="1" vertex="1">
          <mxGeometry x="540" y="610" width="170" height="120" as="geometry" />
        </mxCell>
        <mxCell id="r9QmBJwEoFi95uxMMXEV-95" style="edgeStyle=orthogonalEdgeStyle;rounded=0;orthogonalLoop=1;jettySize=auto;html=1;" parent="1" source="r9QmBJwEoFi95uxMMXEV-73" target="r9QmBJwEoFi95uxMMXEV-93" edge="1">
          <mxGeometry relative="1" as="geometry" />
        </mxCell>
        <mxCell id="r9QmBJwEoFi95uxMMXEV-73" value="Memory Management Unit" style="rounded=1;whiteSpace=wrap;html=1;" parent="1" vertex="1">
          <mxGeometry x="1530" y="710" width="140" height="60" as="geometry" />
        </mxCell>
        <mxCell id="r9QmBJwEoFi95uxMMXEV-96" style="edgeStyle=orthogonalEdgeStyle;rounded=0;orthogonalLoop=1;jettySize=auto;html=1;entryX=0.5;entryY=1;entryDx=0;entryDy=0;" parent="1" source="r9QmBJwEoFi95uxMMXEV-74" target="r9QmBJwEoFi95uxMMXEV-73" edge="1">
          <mxGeometry relative="1" as="geometry" />
        </mxCell>
        <mxCell id="r9QmBJwEoFi95uxMMXEV-74" value="swap file&lt;div&gt;(memory pages)&lt;/div&gt;" style="shape=document;whiteSpace=wrap;html=1;boundedLbl=1;" parent="1" vertex="1">
          <mxGeometry x="1540" y="810" width="120" height="80" as="geometry" />
        </mxCell>
        <mxCell id="r9QmBJwEoFi95uxMMXEV-75" style="edgeStyle=orthogonalEdgeStyle;rounded=0;orthogonalLoop=1;jettySize=auto;html=1;entryX=-0.018;entryY=0.221;entryDx=0;entryDy=0;entryPerimeter=0;exitX=1;exitY=0.25;exitDx=0;exitDy=0;strokeColor=#FF9933;" parent="1" source="r9QmBJwEoFi95uxMMXEV-3" target="r9QmBJwEoFi95uxMMXEV-56" edge="1">
          <mxGeometry relative="1" as="geometry">
            <Array as="points">
              <mxPoint x="1260" y="203" />
              <mxPoint x="1260" y="306" />
            </Array>
          </mxGeometry>
        </mxCell>
        <mxCell id="r9QmBJwEoFi95uxMMXEV-77" style="edgeStyle=orthogonalEdgeStyle;rounded=0;orthogonalLoop=1;jettySize=auto;html=1;exitX=1;exitY=0.25;exitDx=0;exitDy=0;entryX=-0.024;entryY=0.404;entryDx=0;entryDy=0;entryPerimeter=0;strokeColor=#FF9933;" parent="1" source="r9QmBJwEoFi95uxMMXEV-17" target="r9QmBJwEoFi95uxMMXEV-56" edge="1">
          <mxGeometry relative="1" as="geometry">
            <Array as="points">
              <mxPoint x="1260" y="423" />
              <mxPoint x="1260" y="443" />
            </Array>
          </mxGeometry>
        </mxCell>
        <mxCell id="r9QmBJwEoFi95uxMMXEV-56" value="Virtual Memory" style="rounded=0;whiteSpace=wrap;html=1;verticalAlign=top;" parent="1" vertex="1">
          <mxGeometry x="1290" y="140" width="170" height="750" as="geometry" />
        </mxCell>
        <mxCell id="r9QmBJwEoFi95uxMMXEV-57" value="&lt;div&gt;&lt;div&gt;&lt;div&gt;&lt;div&gt;&lt;span style=&quot;font-family: &amp;quot;Courier New&amp;quot;; background-color: initial;&quot;&gt;Peripheral memory&lt;/span&gt;&lt;br&gt;&lt;/div&gt;&lt;/div&gt;&lt;div&gt;&lt;font face=&quot;Courier New&quot;&gt;0xffac0&lt;/font&gt;&lt;/div&gt;&lt;div&gt;&lt;br&gt;&lt;/div&gt;&lt;/div&gt;&lt;div&gt;&lt;font face=&quot;Courier New&quot;&gt;&lt;br&gt;&lt;/font&gt;&lt;/div&gt;&lt;div&gt;&lt;font face=&quot;Courier New&quot;&gt;0xfffff&lt;/font&gt;&lt;/div&gt;&lt;div&gt;&lt;br&gt;&lt;/div&gt;&lt;/div&gt;" style="text;html=1;align=left;verticalAlign=top;whiteSpace=wrap;rounded=0;" parent="1" vertex="1">
          <mxGeometry x="1300" y="804" width="150" height="76" as="geometry" />
        </mxCell>
        <mxCell id="r9QmBJwEoFi95uxMMXEV-61" value="" style="endArrow=none;dashed=1;html=1;rounded=0;" parent="1" edge="1">
          <mxGeometry width="50" height="50" relative="1" as="geometry">
            <mxPoint x="1320" y="870" as="sourcePoint" />
            <mxPoint x="1320" y="840" as="targetPoint" />
            <Array as="points">
              <mxPoint x="1320" y="870" />
            </Array>
          </mxGeometry>
        </mxCell>
        <mxCell id="r9QmBJwEoFi95uxMMXEV-79" value="&lt;span style=&quot;forced-color-adjust: none; color: rgb(0, 0, 0); font-size: 12px; font-style: normal; font-variant-ligatures: normal; font-variant-caps: normal; font-weight: 400; letter-spacing: normal; orphans: 2; text-align: left; text-indent: 0px; text-transform: none; widows: 2; word-spacing: 0px; -webkit-text-stroke-width: 0px; white-space: normal; background-color: rgb(251, 251, 251); text-decoration-thickness: initial; text-decoration-style: initial; text-decoration-color: initial; font-family: &amp;quot;Courier New&amp;quot;;&quot;&gt;0x00000&lt;/span&gt;&lt;div style=&quot;forced-color-adjust: none; color: rgb(0, 0, 0); font-family: Helvetica; font-size: 12px; font-style: normal; font-variant-ligatures: normal; font-variant-caps: normal; font-weight: 400; letter-spacing: normal; orphans: 2; text-align: left; text-indent: 0px; text-transform: none; widows: 2; word-spacing: 0px; -webkit-text-stroke-width: 0px; white-space: normal; background-color: rgb(251, 251, 251); text-decoration-thickness: initial; text-decoration-style: initial; text-decoration-color: initial;&quot;&gt;&lt;div style=&quot;forced-color-adjust: none;&quot;&gt;&lt;font style=&quot;forced-color-adjust: none;&quot; face=&quot;Courier New&quot;&gt;0x00001&lt;/font&gt;&lt;/div&gt;&lt;/div&gt;&lt;div&gt;&lt;br/&gt;&lt;/div&gt;" style="text;html=1;align=center;verticalAlign=top;whiteSpace=wrap;rounded=0;" parent="1" vertex="1">
          <mxGeometry x="1300" y="170" width="60" height="30" as="geometry" />
        </mxCell>
        <mxCell id="r9QmBJwEoFi95uxMMXEV-80" value="&lt;span style=&quot;forced-color-adjust: none; color: rgb(0, 0, 0); font-size: 12px; font-style: normal; font-variant-ligatures: normal; font-variant-caps: normal; font-weight: 400; letter-spacing: normal; orphans: 2; text-align: left; text-indent: 0px; text-transform: none; widows: 2; word-spacing: 0px; -webkit-text-stroke-width: 0px; white-space: normal; background-color: rgb(251, 251, 251); text-decoration-thickness: initial; text-decoration-style: initial; text-decoration-color: initial; font-family: &amp;quot;Courier New&amp;quot;;&quot;&gt;0xaff00&lt;/span&gt;&lt;div&gt;&lt;br&gt;&lt;/div&gt;" style="text;html=1;align=center;verticalAlign=top;whiteSpace=wrap;rounded=0;" parent="1" vertex="1">
          <mxGeometry x="1300" y="295" width="60" height="30" as="geometry" />
        </mxCell>
        <mxCell id="r9QmBJwEoFi95uxMMXEV-81" value="&lt;span style=&quot;forced-color-adjust: none; color: rgb(0, 0, 0); font-size: 12px; font-style: normal; font-variant-ligatures: normal; font-variant-caps: normal; font-weight: 400; letter-spacing: normal; orphans: 2; text-align: left; text-indent: 0px; text-transform: none; widows: 2; word-spacing: 0px; -webkit-text-stroke-width: 0px; white-space: normal; background-color: rgb(251, 251, 251); text-decoration-thickness: initial; text-decoration-style: initial; text-decoration-color: initial; font-family: &amp;quot;Courier New&amp;quot;;&quot;&gt;0xd0000&lt;/span&gt;&lt;div&gt;&lt;br&gt;&lt;/div&gt;" style="text;html=1;align=center;verticalAlign=top;whiteSpace=wrap;rounded=0;" parent="1" vertex="1">
          <mxGeometry x="1300" y="430" width="60" height="30" as="geometry" />
        </mxCell>
        <mxCell id="r9QmBJwEoFi95uxMMXEV-82" value="&lt;span style=&quot;forced-color-adjust: none; color: rgb(0, 0, 0); font-size: 12px; font-style: normal; font-variant-ligatures: normal; font-variant-caps: normal; font-weight: 400; letter-spacing: normal; orphans: 2; text-align: left; text-indent: 0px; text-transform: none; widows: 2; word-spacing: 0px; -webkit-text-stroke-width: 0px; white-space: normal; background-color: rgb(251, 251, 251); text-decoration-thickness: initial; text-decoration-style: initial; text-decoration-color: initial; font-family: &amp;quot;Courier New&amp;quot;;&quot;&gt;0xe0000&lt;/span&gt;&lt;div&gt;&lt;br&gt;&lt;/div&gt;" style="text;html=1;align=center;verticalAlign=top;whiteSpace=wrap;rounded=0;" parent="1" vertex="1">
          <mxGeometry x="1300" y="680" width="60" height="30" as="geometry" />
        </mxCell>
        <mxCell id="r9QmBJwEoFi95uxMMXEV-72" value="" style="group" parent="1" vertex="1" connectable="0">
          <mxGeometry x="1720" y="640" width="170" height="250" as="geometry" />
        </mxCell>
        <mxCell id="r9QmBJwEoFi95uxMMXEV-64" value="Physical Memory" style="rounded=0;whiteSpace=wrap;html=1;verticalAlign=top;" parent="r9QmBJwEoFi95uxMMXEV-72" vertex="1">
          <mxGeometry width="170" height="250" as="geometry" />
        </mxCell>
        <mxCell id="r9QmBJwEoFi95uxMMXEV-65" value="&lt;span style=&quot;font-family: &amp;quot;Courier New&amp;quot;;&quot;&gt;0xf0000&lt;/span&gt;&lt;div&gt;&lt;div style=&quot;&quot;&gt;&lt;font face=&quot;Courier New&quot;&gt;0xf0001&lt;/font&gt;&lt;/div&gt;&lt;div style=&quot;&quot;&gt;&lt;font face=&quot;Courier New&quot;&gt;&lt;br&gt;&lt;/font&gt;&lt;/div&gt;&lt;div style=&quot;&quot;&gt;&lt;font face=&quot;Courier New&quot;&gt;&lt;br&gt;&lt;/font&gt;&lt;/div&gt;&lt;div style=&quot;&quot;&gt;&lt;br&gt;&lt;/div&gt;&lt;div style=&quot;&quot;&gt;&lt;br&gt;&lt;/div&gt;&lt;div style=&quot;&quot;&gt;&lt;font face=&quot;Courier New&quot;&gt;&lt;br&gt;&lt;/font&gt;&lt;/div&gt;&lt;div&gt;&lt;span style=&quot;font-family: &amp;quot;Courier New&amp;quot;;&quot;&gt;0xaffff&lt;/span&gt;&lt;/div&gt;&lt;/div&gt;&lt;div&gt;&lt;span style=&quot;font-family: &amp;quot;Courier New&amp;quot;;&quot;&gt;&lt;br&gt;&lt;/span&gt;&lt;/div&gt;&lt;div&gt;&lt;span style=&quot;font-family: &amp;quot;Courier New&amp;quot;;&quot;&gt;Peripheral memory&lt;/span&gt;&lt;/div&gt;&lt;div style=&quot;&quot;&gt;&lt;font face=&quot;Courier New&quot;&gt;0xffac0&lt;/font&gt;&lt;/div&gt;&lt;div style=&quot;&quot;&gt;&lt;font face=&quot;Courier New&quot;&gt;&lt;br&gt;&lt;/font&gt;&lt;/div&gt;&lt;div style=&quot;&quot;&gt;&lt;font face=&quot;Courier New&quot;&gt;&lt;br&gt;&lt;/font&gt;&lt;/div&gt;&lt;div style=&quot;&quot;&gt;&lt;font face=&quot;Courier New&quot;&gt;0xfffff&lt;/font&gt;&lt;/div&gt;" style="text;html=1;align=left;verticalAlign=top;whiteSpace=wrap;rounded=0;" parent="r9QmBJwEoFi95uxMMXEV-72" vertex="1">
          <mxGeometry x="10" y="20" width="150" height="190" as="geometry" />
        </mxCell>
        <mxCell id="r9QmBJwEoFi95uxMMXEV-70" value="" style="endArrow=none;dashed=1;html=1;rounded=0;exitX=0.133;exitY=1.053;exitDx=0;exitDy=0;exitPerimeter=0;entryX=0.133;entryY=0.895;entryDx=0;entryDy=0;entryPerimeter=0;" parent="r9QmBJwEoFi95uxMMXEV-72" source="r9QmBJwEoFi95uxMMXEV-65" target="r9QmBJwEoFi95uxMMXEV-65" edge="1">
          <mxGeometry width="50" height="50" relative="1" as="geometry">
            <mxPoint x="-420" y="-100" as="sourcePoint" />
            <mxPoint x="-370" y="-150" as="targetPoint" />
          </mxGeometry>
        </mxCell>
        <mxCell id="r9QmBJwEoFi95uxMMXEV-71" value="" style="endArrow=none;dashed=1;html=1;rounded=0;entryX=0.2;entryY=0.211;entryDx=0;entryDy=0;entryPerimeter=0;exitX=0.2;exitY=0.579;exitDx=0;exitDy=0;exitPerimeter=0;" parent="r9QmBJwEoFi95uxMMXEV-72" source="r9QmBJwEoFi95uxMMXEV-65" target="r9QmBJwEoFi95uxMMXEV-65" edge="1">
          <mxGeometry width="50" height="50" relative="1" as="geometry">
            <mxPoint x="-420" y="-100" as="sourcePoint" />
            <mxPoint x="-100" y="80" as="targetPoint" />
          </mxGeometry>
        </mxCell>
        <mxCell id="r9QmBJwEoFi95uxMMXEV-83" value="" style="endArrow=none;dashed=1;html=1;rounded=0;exitX=0.5;exitY=0;exitDx=0;exitDy=0;" parent="1" source="r9QmBJwEoFi95uxMMXEV-80" target="r9QmBJwEoFi95uxMMXEV-79" edge="1">
          <mxGeometry width="50" height="50" relative="1" as="geometry">
            <mxPoint x="1260" y="530" as="sourcePoint" />
            <mxPoint x="1310" y="480" as="targetPoint" />
          </mxGeometry>
        </mxCell>
        <mxCell id="r9QmBJwEoFi95uxMMXEV-84" value="" style="endArrow=none;dashed=1;html=1;rounded=0;entryX=0.5;entryY=1;entryDx=0;entryDy=0;" parent="1" source="r9QmBJwEoFi95uxMMXEV-81" target="r9QmBJwEoFi95uxMMXEV-80" edge="1">
          <mxGeometry width="50" height="50" relative="1" as="geometry">
            <mxPoint x="1260" y="530" as="sourcePoint" />
            <mxPoint x="1310" y="480" as="targetPoint" />
          </mxGeometry>
        </mxCell>
        <mxCell id="r9QmBJwEoFi95uxMMXEV-85" value="" style="endArrow=none;dashed=1;html=1;rounded=0;entryX=0.5;entryY=1;entryDx=0;entryDy=0;exitX=0.5;exitY=0;exitDx=0;exitDy=0;" parent="1" source="r9QmBJwEoFi95uxMMXEV-82" target="r9QmBJwEoFi95uxMMXEV-81" edge="1">
          <mxGeometry width="50" height="50" relative="1" as="geometry">
            <mxPoint x="1260" y="530" as="sourcePoint" />
            <mxPoint x="1310" y="480" as="targetPoint" />
          </mxGeometry>
        </mxCell>
        <mxCell id="r9QmBJwEoFi95uxMMXEV-86" value="&lt;span style=&quot;forced-color-adjust: none; color: rgb(0, 0, 0); font-size: 12px; font-style: normal; font-variant-ligatures: normal; font-variant-caps: normal; font-weight: 400; letter-spacing: normal; orphans: 2; text-align: left; text-indent: 0px; text-transform: none; widows: 2; word-spacing: 0px; -webkit-text-stroke-width: 0px; white-space: normal; background-color: rgb(251, 251, 251); text-decoration-thickness: initial; text-decoration-style: initial; text-decoration-color: initial; font-family: &amp;quot;Courier New&amp;quot;;&quot;&gt;0xffabf&lt;/span&gt;&lt;div&gt;&lt;br&gt;&lt;/div&gt;" style="text;html=1;align=center;verticalAlign=top;whiteSpace=wrap;rounded=0;" parent="1" vertex="1">
          <mxGeometry x="1300" y="780" width="60" height="30" as="geometry" />
        </mxCell>
        <mxCell id="r9QmBJwEoFi95uxMMXEV-87" value="" style="endArrow=none;dashed=1;html=1;rounded=0;entryX=0.5;entryY=1;entryDx=0;entryDy=0;" parent="1" source="r9QmBJwEoFi95uxMMXEV-86" target="r9QmBJwEoFi95uxMMXEV-82" edge="1">
          <mxGeometry width="50" height="50" relative="1" as="geometry">
            <mxPoint x="1260" y="530" as="sourcePoint" />
            <mxPoint x="1310" y="480" as="targetPoint" />
          </mxGeometry>
        </mxCell>
        <mxCell id="r9QmBJwEoFi95uxMMXEV-89" style="edgeStyle=orthogonalEdgeStyle;rounded=0;orthogonalLoop=1;jettySize=auto;html=1;exitX=1;exitY=0.25;exitDx=0;exitDy=0;entryX=0;entryY=0.5;entryDx=0;entryDy=0;strokeColor=#FF9933;" parent="1" source="r9QmBJwEoFi95uxMMXEV-26" target="r9QmBJwEoFi95uxMMXEV-82" edge="1">
          <mxGeometry relative="1" as="geometry">
            <Array as="points">
              <mxPoint x="1250" y="733" />
              <mxPoint x="1250" y="695" />
            </Array>
          </mxGeometry>
        </mxCell>
        <mxCell id="r9QmBJwEoFi95uxMMXEV-90" style="edgeStyle=orthogonalEdgeStyle;rounded=0;orthogonalLoop=1;jettySize=auto;html=1;exitX=1;exitY=0.75;exitDx=0;exitDy=0;entryX=0;entryY=0.355;entryDx=0;entryDy=0;entryPerimeter=0;strokeColor=#6666FF;" parent="1" source="r9QmBJwEoFi95uxMMXEV-26" target="r9QmBJwEoFi95uxMMXEV-57" edge="1">
          <mxGeometry relative="1" as="geometry">
            <mxPoint x="1150" y="840" as="targetPoint" />
            <Array as="points">
              <mxPoint x="1200" y="748" />
              <mxPoint x="1200" y="831" />
            </Array>
          </mxGeometry>
        </mxCell>
        <mxCell id="r9QmBJwEoFi95uxMMXEV-91" style="edgeStyle=orthogonalEdgeStyle;rounded=0;orthogonalLoop=1;jettySize=auto;html=1;exitX=1;exitY=0.75;exitDx=0;exitDy=0;entryX=-0.027;entryY=0.355;entryDx=0;entryDy=0;entryPerimeter=0;strokeColor=#6666FF;" parent="1" source="r9QmBJwEoFi95uxMMXEV-3" target="r9QmBJwEoFi95uxMMXEV-57" edge="1">
          <mxGeometry relative="1" as="geometry">
            <Array as="points">
              <mxPoint x="1200" y="218" />
              <mxPoint x="1200" y="831" />
            </Array>
          </mxGeometry>
        </mxCell>
        <mxCell id="r9QmBJwEoFi95uxMMXEV-92" style="edgeStyle=orthogonalEdgeStyle;rounded=0;orthogonalLoop=1;jettySize=auto;html=1;exitX=1;exitY=0.75;exitDx=0;exitDy=0;entryX=-0.012;entryY=0.921;entryDx=0;entryDy=0;entryPerimeter=0;strokeColor=#6666FF;" parent="1" source="r9QmBJwEoFi95uxMMXEV-17" target="r9QmBJwEoFi95uxMMXEV-56" edge="1">
          <mxGeometry relative="1" as="geometry" />
        </mxCell>
        <mxCell id="r9QmBJwEoFi95uxMMXEV-93" value="" style="labelPosition=right;align=left;strokeWidth=1;shape=mxgraph.mockup.markup.curlyBrace;html=1;shadow=0;dashed=0;strokeColor=#999999;direction=north;rotation=-180;" parent="1" vertex="1">
          <mxGeometry x="1470" y="140" width="20" height="750" as="geometry" />
        </mxCell>
        <mxCell id="r9QmBJwEoFi95uxMMXEV-97" style="edgeStyle=orthogonalEdgeStyle;rounded=0;orthogonalLoop=1;jettySize=auto;html=1;entryX=1;entryY=0.5;entryDx=0;entryDy=0;" parent="1" source="r9QmBJwEoFi95uxMMXEV-64" target="r9QmBJwEoFi95uxMMXEV-73" edge="1">
          <mxGeometry relative="1" as="geometry" />
        </mxCell>
        <mxCell id="r9QmBJwEoFi95uxMMXEV-98" value="The memory managmeent unit maps the pages in the physical memoryand the pages in the swap file into virtual memory.&lt;div&gt;&lt;br&gt;&lt;/div&gt;&lt;div&gt;If a process accesses memory which is not physically present, this causes a page fault which swaps memory stored in the swap file into the physical memory&lt;/div&gt;" style="text;html=1;align=left;verticalAlign=top;whiteSpace=wrap;rounded=0;" parent="1" vertex="1">
          <mxGeometry x="1530" y="450" width="260" height="140" as="geometry" />
        </mxCell>
        <mxCell id="14MQ62T7yJvZnMbvUg5y-1" value="Kernel Processes" style="text;html=1;align=center;verticalAlign=middle;whiteSpace=wrap;rounded=0;" vertex="1" parent="1">
          <mxGeometry x="555" y="90" width="140" height="30" as="geometry" />
        </mxCell>
        <mxCell id="14MQ62T7yJvZnMbvUg5y-2" value="User Processes" style="text;html=1;align=center;verticalAlign=middle;whiteSpace=wrap;rounded=0;" vertex="1" parent="1">
          <mxGeometry x="920" y="90" width="140" height="30" as="geometry" />
        </mxCell>
      </root>
    </mxGraphModel>
  </diagram>
</mxfile>
